{
	"asset":{
		"copyright":"collisionart",
		"generator":"Khronos glTF Blender I/O v4.4.56",
		"version":"2.0"
	},
	"scene":0,
	"scenes":[
		{
			"name":"Scene",
			"nodes":[
				4
			]
		}
	],
	"nodes":[
		{
			"name":"Bone",
			"rotation":[
				-5.233196134213358e-06,
				-5.19134209753247e-06,
				-0.7063371539115906,
				0.7078756093978882
			],
			"scale":[
				0.9999999403953552,
				0.9999998807907104,
				1
			]
		},
		{
			"name":"Bone.002",
			"translation":[
				0,
				0.8756569623947144,
				0
			]
		},
		{
			"children":[
				1
			],
			"name":"Bone.001",
			"rotation":[
				0,
				0.7071067690849304,
				0.7071067690849304,
				0
			],
			"translation":[
				0.01186901330947876,
				0,
				0
			]
		},
		{
			"mesh":0,
			"name":"inner",
			"skin":0
		},
		{
			"children":[
				3,
				0,
				2
			],
			"name":"Armature",
			"translation":[
				-0.3209053874015808,
				0,
				0
			]
		}
	],
	"animations":[
		{
			"channels":[
				{
					"sampler":0,
					"target":{
						"node":0,
						"path":"rotation"
					}
				},
				{
					"sampler":1,
					"target":{
						"node":2,
						"path":"translation"
					}
				},
				{
					"sampler":2,
					"target":{
						"node":2,
						"path":"rotation"
					}
				},
				{
					"sampler":3,
					"target":{
						"node":2,
						"path":"scale"
					}
				},
				{
					"sampler":4,
					"target":{
						"node":1,
						"path":"translation"
					}
				},
				{
					"sampler":5,
					"target":{
						"node":1,
						"path":"rotation"
					}
				},
				{
					"sampler":6,
					"target":{
						"node":1,
						"path":"scale"
					}
				}
			],
			"name":"idle",
			"samplers":[
				{
					"input":13,
					"interpolation":"CUBICSPLINE",
					"output":14
				},
				{
					"input":13,
					"interpolation":"CUBICSPLINE",
					"output":15
				},
				{
					"input":13,
					"interpolation":"CUBICSPLINE",
					"output":16
				},
				{
					"input":13,
					"interpolation":"CUBICSPLINE",
					"output":17
				},
				{
					"input":13,
					"interpolation":"CUBICSPLINE",
					"output":18
				},
				{
					"input":13,
					"interpolation":"CUBICSPLINE",
					"output":19
				},
				{
					"input":13,
					"interpolation":"CUBICSPLINE",
					"output":20
				}
			]
		},
		{
			"channels":[
				{
					"sampler":0,
					"target":{
						"node":0,
						"path":"rotation"
					}
				},
				{
					"sampler":1,
					"target":{
						"node":2,
						"path":"translation"
					}
				},
				{
					"sampler":2,
					"target":{
						"node":2,
						"path":"rotation"
					}
				},
				{
					"sampler":3,
					"target":{
						"node":2,
						"path":"scale"
					}
				},
				{
					"sampler":4,
					"target":{
						"node":1,
						"path":"translation"
					}
				},
				{
					"sampler":5,
					"target":{
						"node":1,
						"path":"rotation"
					}
				},
				{
					"sampler":6,
					"target":{
						"node":1,
						"path":"scale"
					}
				}
			],
			"name":"idle.001",
			"samplers":[
				{
					"input":13,
					"interpolation":"CUBICSPLINE",
					"output":21
				},
				{
					"input":13,
					"interpolation":"CUBICSPLINE",
					"output":22
				},
				{
					"input":13,
					"interpolation":"CUBICSPLINE",
					"output":23
				},
				{
					"input":13,
					"interpolation":"CUBICSPLINE",
					"output":24
				},
				{
					"input":13,
					"interpolation":"CUBICSPLINE",
					"output":25
				},
				{
					"input":13,
					"interpolation":"CUBICSPLINE",
					"output":26
				},
				{
					"input":13,
					"interpolation":"CUBICSPLINE",
					"output":27
				}
			]
		},
		{
			"channels":[
				{
					"sampler":0,
					"target":{
						"node":0,
						"path":"rotation"
					}
				},
				{
					"sampler":1,
					"target":{
						"node":1,
						"path":"translation"
					}
				},
				{
					"sampler":2,
					"target":{
						"node":1,
						"path":"scale"
					}
				},
				{
					"sampler":3,
					"target":{
						"node":1,
						"path":"rotation"
					}
				},
				{
					"sampler":4,
					"target":{
						"node":2,
						"path":"scale"
					}
				},
				{
					"sampler":5,
					"target":{
						"node":2,
						"path":"translation"
					}
				},
				{
					"sampler":6,
					"target":{
						"node":2,
						"path":"rotation"
					}
				}
			],
			"name":"open",
			"samplers":[
				{
					"input":13,
					"interpolation":"CUBICSPLINE",
					"output":28
				},
				{
					"input":13,
					"interpolation":"CUBICSPLINE",
					"output":29
				},
				{
					"input":13,
					"interpolation":"CUBICSPLINE",
					"output":30
				},
				{
					"input":31,
					"interpolation":"LINEAR",
					"output":32
				},
				{
					"input":13,
					"interpolation":"STEP",
					"output":33
				},
				{
					"input":13,
					"interpolation":"STEP",
					"output":34
				},
				{
					"input":31,
					"interpolation":"LINEAR",
					"output":35
				}
			]
		},
		{
			"channels":[
				{
					"sampler":0,
					"target":{
						"node":0,
						"path":"rotation"
					}
				},
				{
					"sampler":1,
					"target":{
						"node":1,
						"path":"translation"
					}
				},
				{
					"sampler":2,
					"target":{
						"node":1,
						"path":"scale"
					}
				},
				{
					"sampler":3,
					"target":{
						"node":1,
						"path":"rotation"
					}
				},
				{
					"sampler":4,
					"target":{
						"node":2,
						"path":"scale"
					}
				},
				{
					"sampler":5,
					"target":{
						"node":2,
						"path":"translation"
					}
				},
				{
					"sampler":6,
					"target":{
						"node":2,
						"path":"rotation"
					}
				}
			],
			"name":"open.001",
			"samplers":[
				{
					"input":13,
					"interpolation":"CUBICSPLINE",
					"output":36
				},
				{
					"input":13,
					"interpolation":"CUBICSPLINE",
					"output":37
				},
				{
					"input":13,
					"interpolation":"CUBICSPLINE",
					"output":38
				},
				{
					"input":31,
					"interpolation":"LINEAR",
					"output":39
				},
				{
					"input":13,
					"interpolation":"STEP",
					"output":40
				},
				{
					"input":13,
					"interpolation":"STEP",
					"output":41
				},
				{
					"input":31,
					"interpolation":"LINEAR",
					"output":42
				}
			]
		}
	],
	"materials":[
		{
			"doubleSided":true,
			"name":"card",
			"pbrMetallicRoughness":{
				"baseColorTexture":{
					"index":0
				},
				"metallicFactor":0
			}
		},
		{
			"doubleSided":true,
			"name":"inner",
			"pbrMetallicRoughness":{
				"baseColorTexture":{
					"index":1
				},
				"metallicFactor":0,
				"roughnessFactor":0.5
			}
		}
	],
	"meshes":[
		{
			"name":"cardfront",
			"primitives":[
				{
					"attributes":{
						"POSITION":0,
						"NORMAL":1,
						"TEXCOORD_0":2,
						"JOINTS_0":3,
						"WEIGHTS_0":4
					},
					"indices":5,
					"material":0
				},
				{
					"attributes":{
						"POSITION":6,
						"NORMAL":7,
						"TEXCOORD_0":8,
						"JOINTS_0":9,
						"WEIGHTS_0":10
					},
					"indices":11,
					"material":1
				}
			]
		}
	],
	"textures":[
		{
			"sampler":0,
			"source":0
		},
		{
			"sampler":0,
			"source":1
		}
	],
	"images":[
		{
			"mimeType":"image/png",
			"name":"cover-bg",
			"uri":"cover-bg.png"
		},
		{
			"mimeType":"image/png",
			"name":"inside-bg",
			"uri":"inside-bg.png"
		}
	],
	"skins":[
		{
			"inverseBindMatrices":12,
			"joints":[
				0,
				2,
				1
			],
			"name":"Armature"
		}
	],
	"accessors":[
		{
			"bufferView":0,
			"componentType":5126,
			"count":113,
			"max":[
				-0.319586843252182,
				0.8960182666778564,
				1.7058546543121338
			],
			"min":[
				-0.3353114128112793,
				-0.875,
				-0.001025922829285264
			],
			"type":"VEC3"
		},
		{
			"bufferView":1,
			"componentType":5126,
			"count":113,
			"type":"VEC3"
		},
		{
			"bufferView":2,
			"componentType":5126,
			"count":113,
			"type":"VEC2"
		},
		{
			"bufferView":3,
			"componentType":5121,
			"count":113,
			"type":"VEC4"
		},
		{
			"bufferView":4,
			"componentType":5126,
			"count":113,
			"type":"VEC4"
		},
		{
			"bufferView":5,
			"componentType":5123,
			"count":324,
			"type":"SCALAR"
		},
		{
			"bufferView":6,
			"componentType":5126,
			"count":20,
			"max":[
				1.279414176940918,
				0.8750776648521423,
				0.005060531198978424
			],
			"min":[
				-0.33252963423728943,
				-0.8749223351478577,
				0.005060411989688873
			],
			"type":"VEC3"
		},
		{
			"bufferView":7,
			"componentType":5126,
			"count":20,
			"type":"VEC3"
		},
		{
			"bufferView":8,
			"componentType":5126,
			"count":20,
			"type":"VEC2"
		},
		{
			"bufferView":9,
			"componentType":5121,
			"count":20,
			"type":"VEC4"
		},
		{
			"bufferView":10,
			"componentType":5126,
			"count":20,
			"type":"VEC4"
		},
		{
			"bufferView":11,
			"componentType":5123,
			"count":72,
			"type":"SCALAR"
		},
		{
			"bufferView":12,
			"componentType":5126,
			"count":3,
			"type":"MAT4"
		},
		{
			"bufferView":13,
			"componentType":5126,
			"count":2,
			"max":[
				1.6666666666666667
			],
			"min":[
				0.041666666666666664
			],
			"type":"SCALAR"
		},
		{
			"bufferView":14,
			"componentType":5126,
			"count":6,
			"type":"VEC4"
		},
		{
			"bufferView":15,
			"componentType":5126,
			"count":6,
			"type":"VEC3"
		},
		{
			"bufferView":16,
			"componentType":5126,
			"count":6,
			"type":"VEC4"
		},
		{
			"bufferView":17,
			"componentType":5126,
			"count":6,
			"type":"VEC3"
		},
		{
			"bufferView":18,
			"componentType":5126,
			"count":6,
			"type":"VEC3"
		},
		{
			"bufferView":19,
			"componentType":5126,
			"count":6,
			"type":"VEC4"
		},
		{
			"bufferView":20,
			"componentType":5126,
			"count":6,
			"type":"VEC3"
		},
		{
			"bufferView":21,
			"componentType":5126,
			"count":6,
			"type":"VEC4"
		},
		{
			"bufferView":22,
			"componentType":5126,
			"count":6,
			"type":"VEC3"
		},
		{
			"bufferView":23,
			"componentType":5126,
			"count":6,
			"type":"VEC4"
		},
		{
			"bufferView":24,
			"componentType":5126,
			"count":6,
			"type":"VEC3"
		},
		{
			"bufferView":25,
			"componentType":5126,
			"count":6,
			"type":"VEC3"
		},
		{
			"bufferView":26,
			"componentType":5126,
			"count":6,
			"type":"VEC4"
		},
		{
			"bufferView":27,
			"componentType":5126,
			"count":6,
			"type":"VEC3"
		},
		{
			"bufferView":28,
			"componentType":5126,
			"count":6,
			"type":"VEC4"
		},
		{
			"bufferView":29,
			"componentType":5126,
			"count":6,
			"type":"VEC3"
		},
		{
			"bufferView":30,
			"componentType":5126,
			"count":6,
			"type":"VEC3"
		},
		{
			"bufferView":31,
			"componentType":5126,
			"count":40,
			"max":[
				1.6666666666666667
			],
			"min":[
				0.041666666666666664
			],
			"type":"SCALAR"
		},
		{
			"bufferView":32,
			"componentType":5126,
			"count":40,
			"type":"VEC4"
		},
		{
			"bufferView":33,
			"componentType":5126,
			"count":2,
			"type":"VEC3"
		},
		{
			"bufferView":34,
			"componentType":5126,
			"count":2,
			"type":"VEC3"
		},
		{
			"bufferView":35,
			"componentType":5126,
			"count":40,
			"type":"VEC4"
		},
		{
			"bufferView":36,
			"componentType":5126,
			"count":6,
			"type":"VEC4"
		},
		{
			"bufferView":37,
			"componentType":5126,
			"count":6,
			"type":"VEC3"
		},
		{
			"bufferView":38,
			"componentType":5126,
			"count":6,
			"type":"VEC3"
		},
		{
			"bufferView":39,
			"componentType":5126,
			"count":40,
			"type":"VEC4"
		},
		{
			"bufferView":40,
			"componentType":5126,
			"count":2,
			"type":"VEC3"
		},
		{
			"bufferView":41,
			"componentType":5126,
			"count":2,
			"type":"VEC3"
		},
		{
			"bufferView":42,
			"componentType":5126,
			"count":40,
			"type":"VEC4"
		}
	],
	"bufferViews":[
		{
			"buffer":0,
			"byteLength":1356,
			"byteOffset":0,
			"target":34962
		},
		{
			"buffer":0,
			"byteLength":1356,
			"byteOffset":1356,
			"target":34962
		},
		{
			"buffer":0,
			"byteLength":904,
			"byteOffset":2712,
			"target":34962
		},
		{
			"buffer":0,
			"byteLength":452,
			"byteOffset":3616,
			"target":34962
		},
		{
			"buffer":0,
			"byteLength":1808,
			"byteOffset":4068,
			"target":34962
		},
		{
			"buffer":0,
			"byteLength":648,
			"byteOffset":5876,
			"target":34963
		},
		{
			"buffer":0,
			"byteLength":240,
			"byteOffset":6524,
			"target":34962
		},
		{
			"buffer":0,
			"byteLength":240,
			"byteOffset":6764,
			"target":34962
		},
		{
			"buffer":0,
			"byteLength":160,
			"byteOffset":7004,
			"target":34962
		},
		{
			"buffer":0,
			"byteLength":80,
			"byteOffset":7164,
			"target":34962
		},
		{
			"buffer":0,
			"byteLength":320,
			"byteOffset":7244,
			"target":34962
		},
		{
			"buffer":0,
			"byteLength":144,
			"byteOffset":7564,
			"target":34963
		},
		{
			"buffer":0,
			"byteLength":192,
			"byteOffset":7708
		},
		{
			"buffer":0,
			"byteLength":8,
			"byteOffset":7900
		},
		{
			"buffer":0,
			"byteLength":96,
			"byteOffset":7908
		},
		{
			"buffer":0,
			"byteLength":72,
			"byteOffset":8004
		},
		{
			"buffer":0,
			"byteLength":96,
			"byteOffset":8076
		},
		{
			"buffer":0,
			"byteLength":72,
			"byteOffset":8172
		},
		{
			"buffer":0,
			"byteLength":72,
			"byteOffset":8244
		},
		{
			"buffer":0,
			"byteLength":96,
			"byteOffset":8316
		},
		{
			"buffer":0,
			"byteLength":72,
			"byteOffset":8412
		},
		{
			"buffer":0,
			"byteLength":96,
			"byteOffset":8484
		},
		{
			"buffer":0,
			"byteLength":72,
			"byteOffset":8580
		},
		{
			"buffer":0,
			"byteLength":96,
			"byteOffset":8652
		},
		{
			"buffer":0,
			"byteLength":72,
			"byteOffset":8748
		},
		{
			"buffer":0,
			"byteLength":72,
			"byteOffset":8820
		},
		{
			"buffer":0,
			"byteLength":96,
			"byteOffset":8892
		},
		{
			"buffer":0,
			"byteLength":72,
			"byteOffset":8988
		},
		{
			"buffer":0,
			"byteLength":96,
			"byteOffset":9060
		},
		{
			"buffer":0,
			"byteLength":72,
			"byteOffset":9156
		},
		{
			"buffer":0,
			"byteLength":72,
			"byteOffset":9228
		},
		{
			"buffer":0,
			"byteLength":160,
			"byteOffset":9300
		},
		{
			"buffer":0,
			"byteLength":640,
			"byteOffset":9460
		},
		{
			"buffer":0,
			"byteLength":24,
			"byteOffset":10100
		},
		{
			"buffer":0,
			"byteLength":24,
			"byteOffset":10124
		},
		{
			"buffer":0,
			"byteLength":640,
			"byteOffset":10148
		},
		{
			"buffer":0,
			"byteLength":96,
			"byteOffset":10788
		},
		{
			"buffer":0,
			"byteLength":72,
			"byteOffset":10884
		},
		{
			"buffer":0,
			"byteLength":72,
			"byteOffset":10956
		},
		{
			"buffer":0,
			"byteLength":640,
			"byteOffset":11028
		},
		{
			"buffer":0,
			"byteLength":24,
			"byteOffset":11668
		},
		{
			"buffer":0,
			"byteLength":24,
			"byteOffset":11692
		},
		{
			"buffer":0,
			"byteLength":640,
			"byteOffset":11716
		}
	],
	"samplers":[
		{
			"magFilter":9729,
			"minFilter":9987,
			"wrapS":33071,
			"wrapT":33071
		}
	],
	"buffers":[
		{
			"byteLength":12356,
			"uri":"card1.bin"
		}
	]
}
